<svg viewBox="0 0 36 36" xmlns="http://www.w3.org/2000/svg"><path fill="#fff" d="M32.24 15.33h-2.992a11.5 11.5 0 0 0-1.408-3.395l2.118-2.117a1.78 1.78 0 0 0 0-2.518l-1.259-1.259a1.78 1.78 0 0 0-2.517 0L24.065 8.16a11.5 11.5 0 0 0-3.395-1.407V3.759a1.78 1.78 0 0 0-1.78-1.78h-1.78a1.78 1.78 0 0 0-1.78 1.78v2.993a11.5 11.5 0 0 0-3.395 1.408L9.82 6.042a1.78 1.78 0 0 0-2.517 0l-1.26 1.259a1.78 1.78 0 0 0 0 2.518l2.117 2.117a11.5 11.5 0 0 0-1.407 3.394H3.759a1.78 1.78 0 0 0-1.78 1.78v1.78a1.78 1.78 0 0 0 1.78 1.78h2.993a11.5 11.5 0 0 0 1.408 3.394L6.042 26.18a1.78 1.78 0 0 0 .001 2.518l1.259 1.259a1.78 1.78 0 0 0 2.517 0l2.117-2.118a11.5 11.5 0 0 0 3.395 1.408v2.993a1.78 1.78 0 0 0 1.78 1.78h1.78a1.78 1.78 0 0 0 1.78-1.78v-2.993a11.5 11.5 0 0 0 3.394-1.408l2.117 2.118a1.78 1.78 0 0 0 2.517 0l1.259-1.259a1.78 1.78 0 0 0 0-2.518l-2.118-2.117a11.5 11.5 0 0 0 1.408-3.395h2.993a1.78 1.78 0 0 0 1.78-1.78v-1.78a1.78 1.78 0 0 0-1.78-1.78M18 25.12a7.12 7.12 0 1 1 0-14.24 7.12 7.12 0 0 1 0 14.24"/></svg>